<?xml version="1.0" encoding="utf-8"?>
<!-- Generator: Adobe Illustrator 28.1.0, SVG Export Plug-In . SVG Version: 6.00 Build 0)  -->
<svg version="1.1" id="Слой_1" xmlns="http://www.w3.org/2000/svg" xmlns:xlink="http://www.w3.org/1999/xlink" x="0px" y="0px"
	 viewBox="0 0 98.16 92.88" style="enable-background:new 0 0 98.16 92.88;" xml:space="preserve">
<style type="text/css">
	.st0{fill:#E3AD00;}
</style>
<g>
	<path class="st0" d="M95.38,92.47c-30.02,0.49-60.43,0.5-90.39,0.05c0,0,0.09-3.03,0.09-3.03s1.51-50.88,1.51-50.88
		s0.05-1.57,0.05-1.57s1.52,0.01,1.52,0.01s84.26,0.32,84.26,0.32l1.18,0C94.66,55.45,95.44,74.09,95.38,92.47L95.38,92.47z
		 M89.42,86.51c-0.05-16,0.74-31.65,1.73-47.9c0,0,1.25,1.25,1.25,1.25L8.15,40.17c0,0,1.56-1.56,1.56-1.56s1.51,50.88,1.51,50.88
		s-3.07-3.07-3.07-3.07C35.43,86,62.21,86.04,89.42,86.51L89.42,86.51z"/>
</g>
<g>
	<path class="st0" d="M49.47,0.38c15.89,13.27,32.3,27.01,48.25,40.79c0,0-6.93,0.03-6.93,0.03c-3.27,0.01-90.16,0.35-90.57,0.35
		C16.5,27.62,33.36,13.71,49.47,0.38L49.47,0.38z M49.47,4.2C36.1,16.66,23.14,28.88,10.06,40.79l-1.92-5.08l82.64,0.32l-1.7,4.52
		C75.88,28.67,62.83,16.55,49.47,4.2C49.47,4.2,62.83,16.55,49.47,4.2z"/>
</g>
</svg>
