<?xml version="1.0" encoding="utf-8"?>
<!-- Generator: Adobe Illustrator 28.1.0, SVG Export Plug-In . SVG Version: 6.00 Build 0)  -->
<svg version="1.1" id="Слой_1" xmlns="http://www.w3.org/2000/svg" xmlns:xlink="http://www.w3.org/1999/xlink" x="0px" y="0px"
	 viewBox="0 0 91.04 70.21" style="enable-background:new 0 0 91.04 70.21;" xml:space="preserve">
<style type="text/css">
	.st0{fill:#E3AD00;}
</style>
<g>
	<path class="st0" d="M90.81,69.73c-29.99,0.49-60.37,0.5-90.3,0.05c0,0-0.01-3.03-0.01-3.03L0.34,3.63L0.34,0.38l3.24,0.01
		L87.83,0.6l2.97,0.01C91.28,23.48,91.3,46.8,90.81,69.73L90.81,69.73z M84.85,63.77c-0.46-20.17-0.48-39.91-0.05-60.15
		c0,0,3.03,3.03,3.03,3.03L3.58,6.86l3.23-3.23L6.65,66.75l-3.07-3.07C30.86,63.27,57.64,63.3,84.85,63.77L84.85,63.77z"/>
</g>
<g>
	<path class="st0" d="M45.7,44.71C30.71,31.32,16.26,17.13,2.38,3.13c0,0,1.2,0,1.2,0h84.26h1.2C75.14,17.13,60.7,31.32,45.7,44.71
		L45.7,44.71z M45.7,35.18c13.47-11.11,27.4-21.35,41.8-31.93c0,0,0.33,0.88,0.33,0.88H3.58L3.9,3.25
		C18.3,13.83,32.23,24.07,45.7,35.18L45.7,35.18z"/>
</g>
</svg>
