<?xml version="1.0" encoding="utf-8"?>
<!-- Generator: Adobe Illustrator 28.1.0, SVG Export Plug-In . SVG Version: 6.00 Build 0)  -->
<svg version="1.1" id="Слой_1" xmlns="http://www.w3.org/2000/svg" xmlns:xlink="http://www.w3.org/1999/xlink" x="0px" y="0px"
	 viewBox="0 0 72.2 85.42" style="enable-background:new 0 0 72.2 85.42;" xml:space="preserve">
<style type="text/css">
	.st0{fill:#E3AD00;}
</style>
<path class="st0" d="M8.3,38.99c-3.36-6.23-5.78-11.63-7.41-15.54c-0.52-1.59-1.75-6.03,0.09-10.96c0.84-2.25,2.05-3.9,3.01-4.99
	l9.34-5.54c3.38-2.49,8.14-1.78,10.64,1.61l9.09,11.32c2.49,3.38,1.78,8.14-1.61,10.64c-2.43,2.69-4.85,5.39-7.28,8.08
	c-0.54,5.58,0.65,9.33,1.96,11.82c1.8,3.4,3.95,4.67,3.84,7.42c-0.11,2.83-2.58,6.22-5.34,6.56C22.48,59.66,19.06,58.93,8.3,38.99z"
	/>
<path class="st0" d="M31.68,70.36c4.34,4.29,8.33,7.48,11.23,9.64c1.08,1.02,5.57,5.04,11.95,4.75c2.37-0.11,4.3-0.78,5.65-1.4
	l8.59-6.86c3.38-2.49,4.1-7.26,1.61-10.64l-7.88-11.81c-0.87-1.01-2.56-2.65-4.99-3.01c-1.99-0.29-3.53,0.43-5.65,1.4
	c-2.12,0.97-5.35,2.43-9.9,4.43c-2.17-0.04-4.59-1.2-6.69-2.51c-2.28-1.41-4.01-2.66-4.8-3.35c-4.5-3.98-4.58-6.92-6.82-7.25
	c-2.22-0.33-5.28,2.12-6.19,5C15.87,54.87,23.78,62.55,31.68,70.36z"/>
</svg>
