<?xml version="1.0" encoding="utf-8"?>
<!-- Generator: Adobe Illustrator 28.1.0, SVG Export Plug-In . SVG Version: 6.00 Build 0)  -->
<svg version="1.1" id="Слой_1" xmlns="http://www.w3.org/2000/svg" xmlns:xlink="http://www.w3.org/1999/xlink" x="0px" y="0px"
	 viewBox="0 0 100 100" style="enable-background:new 0 0 100 100;" xml:space="preserve">
<style type="text/css">
	.st0{fill:#3D0054;}
</style>
<g>
	<path class="st0" d="M77.61,39.57c0.18,15.25-9.67,29.84-23.83,35.48C28.63,85.49,0.43,66.89,0.48,39.57
		C0.45,12.26,28.63-6.3,53.78,4.12C67.93,9.75,77.79,24.33,77.61,39.57L77.61,39.57z M69.51,39.57
		C69.39,12.66,36.65-0.62,17.58,18.2C5.76,29.47,5.77,49.67,17.6,60.94C36.66,79.72,69.38,66.47,69.51,39.57L69.51,39.57z"/>
</g>
<g>
	<polygon class="st0" points="67.75,61.54 98.16,98.31 97.45,99.01 61.15,68.04 67.75,61.54 	"/>
</g>
</svg>
